# xmcd
#
# Track frame offsets:
#	150
#	23444
#	45081
#	71982
#	88949
#	104387
#	121934
#	138564
#	155629
#	171534
#	189052
#	233434
#
# Disc length: 3406 seconds
#
# Revision: 1
# Processed by: cddbd v1.5.2PL0 Copyright (c) Steve Scherf et al.
# Submitted via: audiograbber 1.83.01
#
DISCID=960d4c0c
DTITLE=Various Artist - White boys can play the blues 3
DYEAR=1900
DGENRE=Blues
TTITLE0=Hadden Sayers - End of Road
TTITLE1=Southside Johnny - Baby when the sun goes down
TTITLE2=Hadden Sayers - Big Shot
TTITLE3=Canned Heat - Creole Queen
TTITLE4=Abbi Wallenstein - Blues Harp Boogie
TTITLE5=Mick and Chris Jagger - Racketeer Blues
TTITLE6=Mitch Woods - Lonely lonely nights
TTITLE7=Miller Anderson - Don't let me be misunderstood
TTITLE8=Jack Bruce - Send for me
TTITLE9=Savoy Brown - High on your love
TTITLE10=Alvin Lee - I want you
TTITLE11=Bobby Murray - The future is now
EXTD=
EXTT0=
EXTT1=
EXTT2=
EXTT3=
EXTT4=
EXTT5=
EXTT6=
EXTT7=
EXTT8=
EXTT9=
EXTT10=
EXTT11=
PLAYORDER=
